<?xml version="1.0" encoding="iso-8859-1"?>
<!-- Generator: Adobe Illustrator 19.0.0, SVG Export Plug-In . SVG Version: 6.00 Build 0)  -->
<svg version="1.1" id="Capa_1" xmlns="http://www.w3.org/2000/svg" xmlns:xlink="http://www.w3.org/1999/xlink" x="0px" y="0px"
	 viewBox="0 0 394.831 394.831" style="enable-background:new 0 0 394.831 394.831;" xml:space="preserve">
<g>
	<path id="Alien" d="M212.838,326.969h-30.846c-1.697,0-3.085,1.388-3.085,3.085s1.388,3.085,3.085,3.085h30.846
		c1.697,0,3.085-1.388,3.085-3.085S214.535,326.969,212.838,326.969 M185.058,243.388c-0.173-1.882-4.646-46.238-34.313-66.011
		c-10.753-7.169-24.362-10.809-40.433-10.809c-17.996,0-32.537,4.602-33.147,4.8c-2.011,0.648-3.307,2.622-3.115,4.744
		c0.173,1.876,4.627,46.251,34.301,66.017c10.728,7.169,24.319,10.809,40.396,10.809c18.014,0,32.58-4.608,33.197-4.806
		C183.954,247.485,185.256,245.511,185.058,243.388 M317.666,171.369c-0.611-0.197-15.152-4.8-33.147-4.8
		c-16.071,0-29.68,3.64-40.433,10.809c-29.668,19.772-34.141,64.129-34.313,66.011c-0.197,2.122,1.104,4.096,3.116,4.744
		c0.617,0.197,15.182,4.806,33.197,4.806c16.077,0,29.668-3.64,40.396-10.809c29.674-19.766,34.128-64.141,34.301-66.017
		C320.973,173.991,319.677,172.017,317.666,171.369 M197.434,388.662c-58.472,0-160.418-142.713-160.418-224.56
		C37.016,77.017,108.98,6.17,197.434,6.17c88.436,0,160.382,70.848,160.382,157.932
		C357.815,245.949,255.887,388.662,197.434,388.662 M197.434,0C105.58,0,30.846,73.611,30.846,164.102
		c0,86.252,104.309,230.729,166.588,230.729c62.266,0,166.551-144.477,166.551-230.729C363.985,73.611,289.269,0,197.434,0"/>
</g>
<g>
</g>
<g>
</g>
<g>
</g>
<g>
</g>
<g>
</g>
<g>
</g>
<g>
</g>
<g>
</g>
<g>
</g>
<g>
</g>
<g>
</g>
<g>
</g>
<g>
</g>
<g>
</g>
<g>
</g>
</svg>
