<svg id="Layer_1" enable-background="new 0 0 512 512" height="512" viewBox="0 0 512 512" width="512" xmlns="http://www.w3.org/2000/svg"><path d="m512 482h-61s-.216-175.02-.599-180h30.599v-30h-35.248c-12.006-50.768-43.37-92.811-84.752-119.313v-15.687c0-24.864-20.097-46-45-46h-15v-12.459l24.27-48.541h35.73v-30h-210v30h35.73l24.27 48.541v12.459h-15c-24.86 0-45 21.097-45 46v15.681c-43.304 27.672-73.799 70.797-85.588 119.319h-35.412v29.99h30.618c-.394 4.972-.618 9.982-.618 15.01v165h-60v30h512zm-97.322-210h-53.678v-82.264c25.856 21.408 44.541 50.227 53.678 82.264zm-98.678-151c7.99 0 15 7.477 15 16v135h-30c0-20.71 0-135.869 0-151zm-45 91h-30v-30h30zm-30 30h30v30h-30zm50.73-212-15 30h-41.459l-15-30zm-50.73 60h30v62h-30c0-19.537 0-62 0-62zm-45 31h15v151h-30v-135c0-8.523 7.01-16 15-16zm-45 68.654v82.346h-54.54c9.301-31.967 28.287-60.818 54.54-82.346zm269.293 112.346c.457 4.963.707 9.965.707 15v15h-331v-15c0-5.032.254-10.035.722-15zm-330.293 60h331v120h-90v-90h-150v90h-91zm151 90v30h-30v-60h90v60h-30v-30z"/></svg>